<?xml version="1.0" encoding="UTF-8"?>
<!-- Generated by Pixelmator Pro 3.1.1 -->
<svg width="2899" height="347" viewBox="0 0 2899 347" xmlns="http://www.w3.org/2000/svg" xmlns:xlink="http://www.w3.org/1999/xlink">
    <path id="I-I---BJJ-AACHEN" fill="#eee" fill-rule="evenodd" stroke="none" d="M 2643.727051 40.208008 L 2694.103027 40.208008 L 2825.331055 150.422852 L 2825.470215 40.208008 L 2856.085449 40.208008 L 2856.085449 247 L 2805.709473 247 L 2674.342285 137.202637 L 2674.342285 247 L 2643.727051 247 Z M 2416.211426 40.208008 L 2590.996582 40.208008 L 2590.996582 72.075684 L 2496.785156 72.075684 L 2496.645996 127.878906 L 2568.730957 127.878906 L 2568.730957 159.746582 L 2496.645996 159.746582 L 2496.645996 215.132324 L 2590.996582 215.132324 L 2590.996582 247 L 2416.211426 247 Z M 2131.500732 40.208008 L 2211.935303 40.208008 L 2211.935303 126.904785 L 2271.356689 126.904785 L 2271.356689 40.208008 L 2351.93042 40.208008 L 2351.79126 247 L 2271.356689 247 L 2271.356689 158.772461 L 2211.935303 158.772461 L 2211.935303 247 L 2131.500732 247 Z M 1886.590088 143.743164 C 1886.590088 133.909134 1887.865601 124.423141 1890.416992 115.284912 C 1892.968262 106.146683 1896.702271 97.634811 1901.619385 89.749023 C 1906.536377 81.863251 1912.566528 74.67337 1919.710205 68.179199 C 1926.85376 61.685028 1934.994507 56.118683 1944.132813 51.47998 C 1953.270996 46.841278 1963.359985 43.246338 1974.400146 40.695068 C 1985.440186 38.143799 1997.315063 36.868164 2010.025146 36.868164 C 2018.189209 36.868164 2026.005249 37.378418 2033.473633 38.398926 C 2040.941895 39.419434 2047.96936 40.834229 2054.556396 42.643311 C 2061.143311 44.452393 2067.243164 46.539795 2072.855957 48.905518 C 2078.46875 51.27124 2083.548096 53.75293 2088.093994 56.350586 L 2076.126221 79.729492 C 2070.930908 77.224609 2065.016602 75.114014 2058.383301 73.397705 C 2051.75 71.681396 2044.861572 70.823242 2037.718018 70.823242 C 2028.162231 70.823242 2019.30249 72.53952 2011.138428 75.972168 C 2002.974243 79.404816 1995.923584 84.27536 1989.986084 90.583984 C 1984.048462 96.892609 1979.386719 104.523148 1976.000488 113.47583 C 1972.614136 122.428513 1970.921143 132.47113 1970.921143 143.604004 C 1970.921143 154.644104 1972.590942 164.640335 1975.930908 173.593018 C 1979.270752 182.5457 1983.886108 190.199432 1989.777344 196.554443 C 1995.668457 202.909454 2002.672729 207.826401 2010.790527 211.30542 C 2018.908203 214.784439 2027.698364 216.523926 2037.161377 216.523926 C 2043.841064 216.523926 2050.520752 215.712173 2057.200439 214.088623 C 2063.880127 212.465073 2070.003174 210.308121 2075.56958 207.617676 L 2087.537354 230.996582 C 2082.991455 233.687027 2077.935303 236.191879 2072.368896 238.51123 C 2066.80249 240.830582 2060.772217 242.894775 2054.278076 244.703857 C 2047.783813 246.512939 2040.825928 247.927734 2033.404053 248.948242 C 2025.982056 249.96875 2018.189209 250.479004 2010.025146 250.479004 C 1991.00647 250.479004 1973.866699 247.672638 1958.605469 242.059814 C 1943.344116 236.446991 1930.37915 228.793259 1919.710205 219.098389 C 1909.041138 209.403519 1900.854004 198.085266 1895.148438 185.143311 C 1889.442749 172.201355 1886.590088 158.401443 1886.590088 143.743164 Z M 1696.786743 92.393066 L 1672.851196 40.208008 L 1757.599731 40.208008 L 1858.908325 247.13916 L 1768.036743 247.13916 L 1752.729126 214.019043 L 1671.181274 214.019043 L 1656.012817 247.13916 L 1620.805298 247.13916 Z M 1738.11731 182.151367 L 1711.9552 125.374023 L 1685.932251 182.151367 Z M 1437.681641 92.393066 L 1413.746094 40.208008 L 1498.494629 40.208008 L 1599.803223 247.13916 L 1508.931641 247.13916 L 1493.624023 214.019043 L 1412.076172 214.019043 L 1396.907715 247.13916 L 1361.700195 247.13916 Z M 1479.012207 182.151367 L 1452.850098 125.374023 L 1426.827148 182.151367 Z M 1137.813721 40.208008 L 1218.248291 40.208008 L 1218.248291 214.993164 C 1218.341064 228.07428 1216.369751 240.297058 1212.333984 251.661865 C 1208.29834 263.026672 1202.337769 273.092468 1194.451904 281.859619 C 1186.566162 290.62674 1176.917847 297.909393 1165.506592 303.707764 C 1154.095459 309.506134 1141.153687 313.333008 1126.680908 315.188477 L 1116.661377 298.350098 C 1120.372437 295.566895 1123.549805 292.598145 1126.193848 289.443848 C 1128.838013 286.289551 1131.018066 282.648224 1132.734375 278.519775 C 1134.450684 274.391327 1135.726318 269.659943 1136.561279 264.325439 C 1137.39624 258.990936 1137.813721 252.751984 1137.813721 245.608398 Z M 986.69696 40.208008 L 1067.131592 40.208008 L 1067.131592 214.993164 C 1067.224365 228.07428 1065.25293 240.297058 1061.217285 251.661865 C 1057.181519 263.026672 1051.220947 273.092468 1043.335205 281.859619 C 1035.449341 290.62674 1025.801025 297.909393 1014.389832 303.707764 C 1002.978638 309.506134 990.036865 313.333008 975.564148 315.188477 L 965.544617 298.350098 C 969.255615 295.566895 972.433044 292.598145 975.077087 289.443848 C 977.72113 286.289551 979.901306 282.648224 981.617615 278.519775 C 983.333923 274.391327 984.609558 269.659943 985.444519 264.325439 C 986.27948 258.990936 986.69696 252.751984 986.69696 245.608398 Z M 712.423462 40.208008 L 821.803345 40.208008 C 837.203796 40.208008 850.679016 41.506836 862.22937 44.104492 C 873.779724 46.702148 883.42804 50.389862 891.174683 55.167725 C 898.921265 59.945587 904.742737 65.697479 908.639282 72.423584 C 912.535767 79.149689 914.484009 86.641083 914.484009 94.897949 C 914.484009 103.154831 912.187866 110.92453 907.595581 118.207275 C 903.003235 125.490021 896.300415 131.77536 887.486938 137.063477 C 901.959656 141.238297 912.767639 147.361282 919.911255 155.432617 C 927.05481 163.503952 930.626587 173.384216 930.626587 185.07373 C 930.626587 193.052292 928.701538 200.752411 924.85144 208.174316 C 921.001282 215.596222 915.24939 222.183075 907.595581 227.935059 C 899.941711 233.687042 890.362976 238.302475 878.859009 241.781494 C 867.355042 245.260513 853.903015 247 838.502563 247 L 712.423462 247 Z M 801.485962 124.260742 C 809.093384 124.260742 815.49469 123.541748 820.690063 122.10376 C 825.885376 120.665771 830.036926 118.694351 833.144897 116.189453 C 836.252808 113.684555 838.479309 110.808609 839.824585 107.561523 C 841.1698 104.314438 841.842407 100.928238 841.842407 97.402832 C 841.842407 93.877426 841.1698 90.491241 839.824585 87.244141 C 838.479309 83.99704 836.252808 81.144287 833.144897 78.685791 C 830.036926 76.227295 825.885376 74.255859 820.690063 72.771484 C 815.49469 71.287109 809.093384 70.544922 801.485962 70.544922 L 792.997192 70.544922 L 792.858032 124.260742 Z M 801.485962 216.663086 C 809.742798 216.663086 816.700745 215.781754 822.359985 214.019043 C 828.019165 212.256332 832.611389 209.844254 836.136841 206.782715 C 839.662231 203.721176 842.21344 200.126236 843.790649 195.997803 C 845.367798 191.86937 846.156372 187.439484 846.156372 182.708008 C 846.156372 178.533188 845.321411 174.451187 843.651489 170.461914 C 841.981506 166.472641 839.499878 162.924088 836.206421 159.816162 C 832.912903 156.708237 828.854126 154.203384 824.029907 152.301514 C 819.205627 150.399643 813.639282 149.44873 807.330688 149.44873 L 792.858032 149.44873 L 792.858032 216.663086 Z M 274.113464 40.208008 L 354.687195 40.208008 L 354.548035 247 L 274.113464 247 Z M 31.44043 40.208008 L 112.01416 40.208008 L 111.875 247 L 31.44043 247 Z"/>
    <path id="I-I" fill="#eee" fill-rule="evenodd" stroke="none" d="M 395.113464 64.208008 L 475.687195 64.208008 L 475.548035 271 L 395.113464 271 Z M 152.44043 64.208008 L 233.01416 64.208008 L 232.875 271 L 152.44043 271 Z"/>
</svg>
