<?xml version="1.0" encoding="UTF-8"?>
<!-- Generated by Pixelmator Pro 3.1.1 -->
<svg width="2254" height="342" viewBox="0 0 2254 342" xmlns="http://www.w3.org/2000/svg" xmlns:xlink="http://www.w3.org/1999/xlink">
    <path id="BJJ-AACHEN" fill="#ffffff" fill-rule="evenodd" stroke="none" d="M 684.240234 341.433594 C 691.991272 331.323608 698.393311 319.865295 703.111328 308.070313 C 711.873352 286.165344 710.863281 267.292908 710.863281 244.376953 L 710.863281 97.445313 C 710.863281 79.921356 713.221985 60.712616 696.708984 50.265625 L 696.708984 49.253906 L 784.328125 49.253906 L 787.361328 49.253906 L 874.982422 49.253906 L 874.982422 50.265625 C 858.469421 60.712616 860.828125 79.921356 860.828125 97.445313 L 860.828125 261.900391 C 860.828125 289.534332 857.120667 304.026276 831.845703 319.865234 C 814.995667 330.312225 792.416382 340.759583 771.859375 341.433594 C 779.610413 331.323608 786.014404 319.865295 790.732422 308.070313 C 799.494446 286.165344 798.482422 267.292908 798.482422 244.376953 L 798.482422 97.445313 C 798.482422 80.478088 800.693726 61.93103 785.845703 51.287109 C 770.997681 61.93103 773.207031 80.478088 773.207031 97.445313 L 773.207031 261.900391 C 773.207031 289.534332 769.501526 304.026276 744.226563 319.865234 C 727.376526 330.312225 704.797241 340.759583 684.240234 341.433594 Z M 2198.380859 278.076172 C 2186.585693 278.076172 2168.051514 269.652588 2157.941406 264.597656 C 2133.003418 252.128754 2126.599121 240.669403 2110.085938 219.101563 L 2045.382813 132.830078 L 2044.371094 132.830078 L 2044.371094 221.798828 C 2044.371094 241.344666 2044.708252 256.171387 2059.199219 269.988281 L 2059.199219 271 L 1994.158203 271 L 1994.158203 269.988281 C 2008.986206 256.171387 2009.324219 241.344666 2009.324219 221.798828 L 2009.324219 105.533203 C 2009.324219 79.584412 2007.975342 70.485382 1989.777344 50.265625 L 1989.777344 49.253906 L 2059.875 49.253906 L 2059.875 50.265625 L 2163.332031 185.738281 L 2163.332031 98.455078 C 2163.332031 78.909302 2162.995117 64.082611 2148.503906 50.265625 L 2148.503906 49.253906 L 2213.208984 49.253906 L 2213.208984 50.265625 C 2198.718018 64.082611 2198.380859 78.909302 2198.380859 98.455078 L 2198.380859 278.076172 Z M 1548.644531 275.380859 C 1514.270508 275.380859 1485.288086 269.651306 1458.328125 246.398438 C 1432.37915 224.493561 1418.5625 192.815247 1418.5625 158.441406 C 1418.5625 127.437561 1431.706909 94.749374 1455.296875 73.855469 C 1480.908813 51.950623 1516.292358 43.861328 1549.318359 43.861328 L 1600.207031 48.242188 L 1602.564453 95.423828 C 1586.051514 84.302826 1566.505127 77.898438 1546.285156 77.898438 C 1500.116089 77.898438 1486.974609 114.969315 1486.974609 155.746094 C 1486.974609 202.251862 1509.552612 239.996094 1559.765625 239.996094 C 1586.051636 239.996094 1609.979614 230.223724 1632.558594 218.091797 L 1615.707031 267.292969 C 1593.802002 273.358948 1571.223511 275.380859 1548.644531 275.380859 Z M 515.402344 271 L 515.402344 269.988281 C 531.915344 259.54129 529.556641 240.669586 529.556641 222.808594 L 529.556641 97.107422 C 529.556641 79.583466 531.915344 60.37561 515.402344 50.265625 L 515.402344 49.253906 L 615.828125 49.253906 C 633.689148 49.253906 648.517883 49.253998 662.671875 60.375 C 676.488892 71.158997 685.25 84.638153 685.25 102.162109 C 685.25 124.741104 669.749329 138.222885 649.529297 144.962891 C 678.511292 149.006882 698.056641 173.270874 698.056641 202.589844 C 698.056641 223.483826 689.969849 241.007233 674.130859 254.824219 C 655.932861 270.663208 638.071533 271 614.144531 271 L 515.402344 271 Z M 955.861328 271 L 955.861328 269.988281 C 968.667358 258.193329 973.049255 248.421326 979.115234 231.234375 L 1025.621094 96.771484 C 1027.643066 90.031494 1033.035156 76.887543 1033.035156 69.810547 C 1033.035156 60.711548 1026.968506 54.646606 1020.228516 50.265625 L 1020.228516 49.253906 L 1102.792969 49.253906 L 1166.486328 222.808594 C 1173.758423 242.200958 1175.858398 250.424805 1190.169922 264.869141 C 1199.154053 255.148743 1203.104614 245.884735 1208.275391 231.234375 L 1254.78125 96.771484 C 1256.803223 90.031494 1262.195313 76.887543 1262.195313 69.810547 C 1262.195313 60.711548 1256.128662 54.646606 1249.388672 50.265625 L 1249.388672 49.253906 L 1331.953125 49.253906 L 1395.646484 222.808594 C 1403.734497 244.376495 1405.419922 252.12735 1424.628906 269.988281 L 1424.628906 271 L 1322.855469 271 L 1322.855469 269.988281 C 1330.606445 264.933319 1336.671875 260.215607 1336.671875 249.431641 C 1336.671875 243.702667 1335.998657 242.018921 1333.976563 236.626953 L 1322.855469 203.9375 L 1256.128906 203.9375 L 1248.041016 226.853516 C 1245.682007 233.593491 1241.974609 244.040222 1241.974609 251.117188 C 1241.974609 260.553162 1248.041382 264.933319 1254.107422 269.988281 L 1254.107422 271 L 1195.46875 271 L 1185.021484 271 L 1093.695313 271 L 1093.695313 269.988281 C 1101.446411 264.933289 1107.511719 260.215637 1107.511719 249.431641 C 1107.511719 243.702667 1106.838379 242.018921 1104.816406 236.626953 L 1093.695313 203.9375 L 1026.96875 203.9375 L 1018.880859 226.853516 C 1016.521851 233.593506 1012.814453 244.040222 1012.814453 251.117188 C 1012.814453 260.553162 1018.881226 264.933289 1024.947266 269.988281 L 1024.947266 271 L 955.861328 271 Z M 1625.144531 271 L 1625.144531 269.988281 C 1641.657471 259.541321 1639.298828 240.332504 1639.298828 222.808594 L 1639.298828 97.445313 C 1639.298828 79.921478 1641.657471 60.712616 1625.144531 50.265625 L 1625.144531 49.253906 L 1715.796875 49.253906 L 1715.796875 50.265625 C 1698.946899 60.712616 1701.642578 79.921478 1701.642578 97.445313 L 1701.642578 135.863281 L 1761.966797 135.863281 L 1761.966797 97.445313 C 1761.966797 79.921478 1764.325439 60.712616 1747.8125 50.265625 L 1747.8125 49.253906 L 1834.421875 49.253906 L 1838.464844 49.253906 L 1952.371094 49.253906 C 1957.426147 49.253906 1962.818359 49.253357 1966.525391 47.568359 L 1967.535156 47.568359 L 1967.535156 96.433594 L 1966.525391 96.433594 C 1957.426392 80.594788 1938.216187 82.279297 1921.703125 82.279297 L 1910.919922 82.279297 L 1910.919922 136.873047 L 1942.261719 136.873047 C 1946.979736 136.873047 1951.69751 136.53746 1954.730469 135.189453 L 1956.414063 135.189453 L 1956.414063 182.369141 L 1954.730469 182.369141 C 1950.012451 168.889252 1934.51001 170.236328 1922.041016 170.236328 L 1910.919922 170.236328 L 1910.919922 233.59375 C 1922.040894 237.974701 1934.509644 238.648438 1946.304688 238.648438 C 1965.176636 238.648438 1982.701904 235.615173 1995.507813 220.113281 L 1997.191406 220.113281 L 1983.712891 271 L 1838.464844 271 L 1834.421875 271 L 1747.8125 271 L 1747.8125 269.988281 C 1764.325439 259.541321 1761.966797 240.332504 1761.966797 222.808594 L 1761.966797 169.900391 L 1701.642578 169.900391 L 1701.642578 222.808594 C 1701.642578 240.332504 1699.283936 259.541321 1715.796875 269.988281 L 1715.796875 271 L 1625.144531 271 Z M 1836.445313 268.595703 C 1850.734131 257.922119 1848.574219 239.91745 1848.574219 223.146484 L 1848.574219 97.107422 C 1848.574219 80.346741 1850.730835 62.046692 1836.470703 51.638672 C 1822.150024 62.335876 1824.310547 80.663147 1824.310547 97.445313 L 1824.310547 222.808594 C 1824.310547 239.580826 1822.152832 257.895813 1836.445313 268.595703 Z M 606.730469 239.322266 C 628.635498 239.322266 637.396484 221.1241 637.396484 201.578125 C 637.396484 175.966156 625.602234 164.507813 599.990234 164.507813 L 591.902344 164.507813 L 591.902344 235.277344 C 596.957336 238.647339 600.66449 239.322266 606.730469 239.322266 Z M 1036.742188 172.595703 L 1082.574219 172.595703 L 1059.320313 106.207031 L 1058.984375 106.207031 L 1036.742188 172.595703 Z M 1265.902344 172.595703 L 1311.734375 172.595703 L 1288.480469 106.207031 L 1288.144531 106.207031 L 1265.902344 172.595703 Z M 598.304688 135.525391 C 614.480713 135.525391 622.90625 121.035904 622.90625 106.544922 C 622.90625 93.401932 616.166809 80.595703 601.675781 80.595703 C 598.305786 80.595703 595.272339 81.269196 591.902344 82.617188 L 591.902344 134.177734 C 594.261353 134.851746 595.945679 135.525391 598.304688 135.525391 Z"/>
    <path id="bars" fill="#ffffff" stroke="none" d="M 40.5 271.47406 L 122.613495 271.47406 L 122.613495 49.139923 L 40.5 49.139923 Z M 131.114746 287 L 213.223312 287 L 213.223312 64.665375 L 131.114746 64.665375 Z M 223.83107 271.47406 L 305.941772 271.47406 L 305.941772 49.139923 L 223.83107 49.139923 Z M 313.388947 287 L 395.500793 287 L 395.500793 64.665375 L 313.388947 64.665375 Z"/>
</svg>
